<svg xmlns="http://www.w3.org/2000/svg" viewBox="0 0 64 64" role="img" aria-label="Rainboard">
  <defs>
    <linearGradient id="rb-bg-a" x1="0%" y1="0%" x2="100%" y2="100%">
      <stop offset="0%" stop-color="#1194ff"/>
      <stop offset="48%" stop-color="#07d6b6"/>
      <stop offset="100%" stop-color="#ffd257"/>
    </linearGradient>
    <radialGradient id="rb-glow" cx="28%" cy="22%" r="70%">
      <stop offset="0%" stop-color="#ffffff" stop-opacity=".72"/>
      <stop offset="60%" stop-color="#ffffff" stop-opacity=".10"/>
      <stop offset="100%" stop-color="#ffffff" stop-opacity="0"/>
    </radialGradient>
    <linearGradient id="rb-r" x1="0%" y1="0%" x2="100%" y2="100%">
      <stop offset="0%" stop-color="#ffffff"/>
      <stop offset="100%" stop-color="#eef6ff"/>
    </linearGradient>
  </defs>

  <rect x="6" y="6" width="52" height="52" rx="16" fill="url(#rb-bg-a)"/>
  <rect x="6" y="6" width="52" height="52" rx="16" fill="url(#rb-glow)"/>
  <rect x="6.5" y="6.5" width="51" height="51" rx="15.5" fill="none" stroke="rgba(255,255,255,.28)"/>

  <path
    d="M22 18h13.5c6.9 0 11.5 4.3 11.5 10.5 0 4.7-2.5 8.1-6.7 9.5L46.5 46h-8.8l-5.1-7h-2.9v7H22V18zm7.7 15.1h5.1c2.8 0 4.7-1.7 4.7-4.2s-1.9-4.1-4.7-4.1h-5.1v8.3z"
    fill="url(#rb-r)"
  />
</svg>
